<?xml version="1.0" encoding="UTF-8" standalone="no"?>
<!-- Created with Inkscape (http://www.inkscape.org/) -->

<svg
   width="210mm"
   height="297mm"
   viewBox="0 0 210 297"
   version="1.1"
   id="svg5"
   inkscape:version="1.1.1 (c3084ef, 2021-09-22)"
   sodipodi:docname="Am_logo.svg"
   xmlns:inkscape="http://www.inkscape.org/namespaces/inkscape"
   xmlns:sodipodi="http://sodipodi.sourceforge.net/DTD/sodipodi-0.dtd"
   xmlns="http://www.w3.org/2000/svg"
   xmlns:svg="http://www.w3.org/2000/svg">
  <sodipodi:namedview
     id="namedview7"
     pagecolor="#ffffff"
     bordercolor="#666666"
     borderopacity="1.0"
     inkscape:pageshadow="2"
     inkscape:pageopacity="0.0"
     inkscape:pagecheckerboard="0"
     inkscape:document-units="mm"
     showgrid="false"
     inkscape:zoom="0.81578121"
     inkscape:cx="236.58304"
     inkscape:cy="554.68304"
     inkscape:window-width="1304"
     inkscape:window-height="793"
     inkscape:window-x="0"
     inkscape:window-y="25"
     inkscape:window-maximized="0"
     inkscape:current-layer="layer1" />
  <defs
     id="defs2" />
  <g
     inkscape:label="Lag 1"
     inkscape:groupmode="layer"
     id="layer1">
    <path
       style="fill:#800080;stroke:#800080;stroke-width:0.107914"
       d="m 12.361647,117.60879 c 0.06079,-0.24532 6.867094,-18.674329 6.976337,-18.88939 0.06095,-0.119983 0.09416,-0.107601 0.15159,0.05651 0.885568,2.53066 1.913999,5.60723 1.911202,5.71738 -0.002,0.0791 -1.106025,3.09374 -2.453368,6.69913 l -2.449713,6.55527 -2.092824,0.0306 c -1.960143,0.0287 -2.08968,0.0179 -2.043224,-0.16954 z m 17.381297,-0.1154 c -0.05796,-0.17095 -0.864478,-2.47235 -1.79227,-5.11424 -0.927792,-2.64188 -2.729917,-8.03302 -4.004721,-11.98031 -1.274806,-3.947283 -2.350297,-7.266914 -2.389981,-7.376954 -0.06787,-0.188192 0.05808,-0.19826 2.120572,-0.169533 l 2.192725,0.03054 4.100527,12.319377 c 2.25529,6.77565 4.102235,12.38295 4.104324,12.46065 0.0029,0.10857 -0.485828,0.14128 -2.111001,0.14128 h -2.114798 z m 12.749619,0.23546 c -0.03778,-0.0414 -0.06869,-5.66145 -0.06869,-12.48891 V 92.826383 h 0.360628 0.360628 v 12.488907 12.48891 h -0.291937 c -0.160566,0 -0.322848,-0.0339 -0.360628,-0.0754 z m 39.342765,-0.0763 c -0.721608,-0.36552 -0.874454,-0.9065 -0.875235,-3.09777 l -5.75e-4,-1.61056 h 0.250656 0.250657 l 0.03269,1.87491 0.03269,1.8749 0.289096,0.27251 c 0.341449,0.32186 1.126766,0.3765 1.482543,0.10315 0.31067,-0.23868 0.443646,-1.05344 0.443646,-2.71826 0,-1.33186 0.01103,-1.40721 0.206073,-1.40721 0.197539,0 0.206073,0.0754 0.206073,1.81952 0,2.03769 -0.09881,2.46323 -0.643706,2.77232 -0.434602,0.24652 -1.299191,0.30667 -1.674615,0.11649 z m 14.0319,-0.005 c -0.514978,-0.21029 -0.739321,-0.44407 -1.005947,-1.04822 -0.326038,-0.73877 -0.25907,-2.07171 0.137073,-2.72831 0.785913,-1.30266 2.692192,-1.24939 3.371608,0.0942 0.349499,0.69116 0.359528,1.96921 0.02103,2.68072 -0.441932,0.92895 -1.587937,1.38376 -2.523767,1.0016 z m 1.647791,-0.61456 c 0.329956,-0.1937 0.65195,-1.01977 0.649329,-1.66583 -0.0028,-0.67666 -0.297467,-1.43236 -0.660327,-1.69316 -0.406174,-0.29192 -1.0943,-0.33879 -1.543247,-0.1051 -0.955471,0.49733 -1.122991,2.5383 -0.277251,3.37785 0.386381,0.38356 1.255339,0.42448 1.831496,0.0862 z m 66.131281,0.69521 c -0.40351,-0.12347 -0.73842,-0.48241 -0.85775,-0.91929 -0.0696,-0.25493 -0.1211,-1.17028 -0.1211,-2.15382 0,-1.59821 0.0127,-1.71047 0.19354,-1.71047 0.17896,0 0.19693,0.12998 0.23836,1.72358 0.0604,2.32264 0.17709,2.57125 1.20715,2.57125 0.39202,0 0.53826,-0.0577 0.73859,-0.29134 0.24021,-0.28015 0.25105,-0.36254 0.28248,-2.14741 l 0.0327,-1.85608 h 0.25952 0.25952 l -0.0347,1.83661 c -0.0373,1.97632 -0.11122,2.30581 -0.60733,2.70829 -0.26927,0.21845 -1.20055,0.35816 -1.591,0.23868 z m 13.60081,-0.0752 c -0.7216,-0.36552 -0.87445,-0.9065 -0.87523,-3.09777 l -5.8e-4,-1.61056 h 0.25759 0.2576 v 1.64245 c 0,2.27744 0.16493,2.65238 1.16673,2.65238 0.91581,0 1.09376,-0.45353 1.09761,-2.79729 0.002,-1.42129 0.0129,-1.49754 0.20853,-1.49754 0.1975,0 0.20607,0.0754 0.20607,1.81198 0,2.05643 -0.0922,2.46705 -0.62169,2.76738 -0.45399,0.25751 -1.31384,0.32288 -1.69663,0.12897 z m 8.00471,-0.76232 -0.52706,-0.89442 h -0.46742 -0.46741 v 0.85552 c 0,0.82257 -0.009,0.85414 -0.23183,0.81941 -0.23181,-0.0361 -0.23183,-0.0363 -0.23183,-2.35306 v -2.31695 l 0.99736,2.3e-4 c 0.84974,2.2e-4 1.04038,0.0352 1.28795,0.23628 0.77351,0.62826 0.65705,2.03497 -0.21435,2.58901 -0.15893,0.10104 -0.12822,0.1849 0.28964,0.79115 0.52635,0.76365 0.5507,0.85301 0.28246,1.03677 -0.16907,0.11581 -0.24961,0.03 -0.71751,-0.76397 z m -0.004,-1.58181 c 0.42858,-0.25159 0.51708,-1.06751 0.16454,-1.51689 -0.20129,-0.25658 -0.32006,-0.29835 -0.90156,-0.31711 l -0.66974,-0.0216 -0.0304,0.89418 c -0.0418,1.22992 -0.0344,1.24284 0.66157,1.15311 0.31648,-0.0408 0.66549,-0.12706 0.77559,-0.19169 z M 56.70466,117.4938 c -0.264878,-0.95653 -1.092518,-4.29464 -1.092518,-4.40644 0,-0.0785 0.108715,-0.14269 0.241589,-0.14269 0.227012,0 0.271769,0.12767 0.741815,2.11602 l 0.500227,2.11602 0.474169,-2.08776 0.474168,-2.08777 0.318616,-0.0345 0.318616,-0.0345 0.448852,2.03908 c 0.246869,1.12149 0.472036,2.03963 0.500371,2.04032 0.02833,6.7e-4 0.261443,-0.90137 0.518017,-2.00456 0.456059,-1.96091 0.47286,-2.00661 0.750787,-2.04196 0.334094,-0.0425 0.375928,-0.33006 -0.377149,2.59245 l -0.535357,2.07761 h -0.351578 -0.351578 l -0.463112,-2.00285 -0.463113,-2.00284 -0.45567,2.0311 -0.45567,2.0311 h -0.343355 c -0.23745,0 -0.36025,-0.061 -0.398127,-0.19779 z m 7.871656,-2.17926 v -2.37704 l 1.210679,0.0318 c 0.994566,0.0262 1.210679,0.0621 1.210679,0.20137 0,0.13484 -0.200348,0.1811 -0.978847,0.22605 l -0.978846,0.0565 v 0.79115 0.79115 l 0.850051,0.0328 c 0.765331,0.0296 0.850051,0.0549 0.850051,0.2543 0,0.20258 -0.07472,0.22147 -0.87581,0.22147 h -0.875811 v 0.84767 0.84766 h 1.030365 c 0.961674,0 1.030365,0.0151 1.030365,0.22604 0,0.21349 -0.06869,0.22605 -1.236438,0.22605 h -1.236438 z m 9.171392,2.29228 c 6.19e-4,-0.0466 0.36699,-1.10196 0.814131,-2.3452 l 0.812984,-2.26044 h 0.332665 0.332665 l 0.810898,2.25487 c 0.445994,1.24018 0.810899,2.29552 0.810899,2.3452 0,0.0497 -0.109707,0.0903 -0.243793,0.0903 -0.199307,0 -0.281297,-0.10828 -0.449333,-0.59337 l -0.205542,-0.59336 h -1.056179 -1.05618 l -0.20179,0.59336 c -0.16742,0.4923 -0.244436,0.59337 -0.452179,0.59337 -0.137715,0 -0.249875,-0.0382 -0.249246,-0.0848 z m 2.762636,-1.75184 c -0.09647,-0.4091 -0.761996,-2.34473 -0.806087,-2.34444 -0.02833,2.3e-4 -0.208578,0.49598 -0.40054,1.10175 -0.191962,0.60578 -0.370796,1.16499 -0.397411,1.24269 -0.03625,0.10584 0.163069,0.14128 0.794483,0.14128 0.623372,0 0.834194,-0.0368 0.809555,-0.14128 z m 12.691692,-0.31081 v -2.14741 h -0.721255 c -0.655506,0 -0.721255,-0.0209 -0.721255,-0.22885 0,-0.22165 0.05255,-0.22786 1.673032,-0.19778 1.498318,0.0278 1.676649,0.0517 1.707658,0.22884 0.03034,0.17331 -0.05558,0.19779 -0.694187,0.19779 h -0.72881 v 2.14741 2.14742 h -0.257591 -0.257592 z m 13.085634,-0.22604 v -2.37346 l 0.38639,2.3e-4 0.38638,2.2e-4 0.66572,1.91611 c 0.36615,1.05387 0.68335,1.89679 0.70489,1.87316 0.0215,-0.0236 0.33075,-0.87327 0.68714,-1.8881 l 0.64796,-1.84515 0.42452,-0.0348 0.42453,-0.0348 v 2.37995 2.37996 h -0.25759 -0.25759 l -0.006,-2.11916 -0.006,-2.11916 -0.18519,0.5086 c -0.10185,0.27973 -0.4046,1.13163 -0.67278,1.89311 -0.48407,1.37453 -0.48999,1.38452 -0.8204,1.38452 h -0.33281 l -0.66313,-1.89311 -0.66314,-1.89312 -0.028,2.11916 c -0.0268,2.02557 -0.037,2.11916 -0.23183,2.11916 -0.19658,4e-5 -0.20381,-0.0841 -0.20381,-2.37342 z m 7.66652,2.18468 c 0.0386,-0.11374 0.42102,-1.18866 0.84984,-2.3887 l 0.77967,-2.1819 0.32145,0.0345 c 0.31632,0.0339 0.3341,0.0696 1.11616,2.23841 0.43709,1.21216 0.79736,2.2675 0.80058,2.3452 0.003,0.0777 -0.10424,0.14128 -0.23881,0.14128 -0.20182,0 -0.27872,-0.10395 -0.43893,-0.59337 l -0.19423,-0.59336 -1.0466,-0.0321 -1.0466,-0.0321 -0.20238,0.59721 c -0.16965,0.50061 -0.24832,0.60324 -0.48636,0.63448 -0.23815,0.0312 -0.27264,0.004 -0.21379,-0.16953 z m 2.74017,-1.58433 c 0,-0.24135 -0.76452,-2.40434 -0.82329,-2.32925 -0.0587,0.075 -0.22722,0.55226 -0.80011,2.26575 -0.0353,0.10567 0.16333,0.14128 0.78808,0.14128 0.45943,0 0.83532,-0.035 0.83532,-0.0778 z m 5.84959,-0.34605 -0.028,-2.11916 -0.6955,-0.0334 c -0.611,-0.0294 -0.6955,-0.0603 -0.6955,-0.2543 0,-0.20995 0.0815,-0.22088 1.64859,-0.22088 1.56704,0 1.64858,0.0109 1.64858,0.22088 0,0.19404 -0.0845,0.22494 -0.69549,0.2543 l -0.6955,0.0334 -0.028,2.11916 c -0.0267,2.01739 -0.0377,2.11916 -0.22955,2.11916 -0.19185,0 -0.20287,-0.10177 -0.22956,-2.11916 z m 5.48442,-0.2543 v -2.37346 h 1.23644 c 1.16774,0 1.23643,0.0126 1.23643,0.22604 0,0.21019 -0.0687,0.22605 -0.97884,0.22605 h -0.97885 v 0.84766 0.84766 h 0.87581 c 0.80712,0 0.87581,0.0177 0.87581,0.22605 0,0.20831 -0.0687,0.22604 -0.87581,0.22604 h -0.87581 v 0.84357 0.84357 l 1.00341,0.0323 c 0.85987,0.0277 1.00835,0.0606 1.03792,0.23014 0.0314,0.17989 -0.0827,0.19779 -1.261,0.19779 h -1.29551 z m 10.92187,0.22604 v -2.14741 h -0.72881 c -0.63861,0 -0.72453,-0.0245 -0.69419,-0.19779 0.031,-0.17713 0.20934,-0.20103 1.70765,-0.22884 1.60799,-0.0298 1.67304,-0.0224 1.67304,0.19262 0,0.1975 -0.0814,0.22759 -0.6955,0.2571 l -0.69549,0.0334 -0.028,2.11916 -0.028,2.11916 h -0.25532 -0.25531 z m 5.46093,-0.22604 v -2.37346 h 0.25759 c 0.25569,0 0.25759,0.008 0.25759,1.0172 v 1.01719 h 1.18492 1.18492 v -1.02505 c 0,-0.99838 0.006,-1.02412 0.23183,-0.98894 0.23088,0.036 0.23195,0.0458 0.25969,2.38131 l 0.0279,2.34521 h -0.25969 -0.25968 v -1.13022 -1.13022 h -1.18492 -1.18492 v 1.13022 1.13022 h -0.25759 -0.25759 z m 7.00648,0 v -2.37346 h 1.23644 c 1.16015,0 1.23644,0.0137 1.23644,0.22195 0,0.2032 -0.0849,0.22469 -1.00461,0.2543 l -1.00461,0.0324 v 0.79115 0.79115 l 0.90833,0.0328 c 0.79245,0.0286 0.90405,0.0574 0.87466,0.22604 -0.0282,0.16179 -0.1811,0.19861 -0.93853,0.22601 l -0.90483,0.0327 0.0302,0.81494 0.0302,0.81494 1.00461,0.0323 c 0.91972,0.0296 1.00461,0.0511 1.00461,0.25429 0,0.20826 -0.0763,0.22196 -1.23644,0.22196 h -1.23644 z m 9.58239,0 v -2.37346 h 1.18492 c 1.10868,0 1.18492,0.0143 1.18492,0.2218 0,0.20206 -0.0848,0.2247 -0.95308,0.2543 l -0.95309,0.0325 v 0.79115 0.79115 l 0.85005,0.0328 c 0.76533,0.0296 0.85005,0.0549 0.85005,0.2543 0,0.20258 -0.0747,0.22147 -0.87581,0.22147 h -0.87581 v 1.07371 c 0,0.99836 -0.0145,1.07371 -0.20607,1.07371 -0.19953,0 -0.20608,-0.0754 -0.20608,-2.37346 z m 13.88645,0.2543 -0.028,-2.11916 -0.6955,-0.0334 c -0.61099,-0.0294 -0.69549,-0.0603 -0.69549,-0.2543 0,-0.20995 0.0815,-0.22088 1.64858,-0.22088 1.56704,0 1.64859,0.0109 1.64859,0.22088 0,0.19404 -0.0845,0.22494 -0.6955,0.2543 l -0.6955,0.0334 -0.028,2.11916 c -0.0267,2.01739 -0.0377,2.11916 -0.22956,2.11916 -0.19184,0 -0.20287,-0.10177 -0.22955,-2.11916 z m 18.67308,-0.2543 v -2.37346 h 1.23644 c 1.16774,0 1.23644,0.0126 1.23644,0.22604 0,0.21019 -0.0687,0.22605 -0.97885,0.22605 h -0.97884 v 0.84766 0.84766 h 0.88336 c 0.78573,0 0.87956,0.0219 0.84892,0.19779 -0.0289,0.166 -0.17093,0.20307 -0.88338,0.23062 l -0.8489,0.0328 v 0.8431 0.84309 h 0.97884 c 0.91015,0 0.97885,0.0159 0.97885,0.22604 0,0.21349 -0.0687,0.22605 -1.23644,0.22605 h -1.23644 z M 104.2833,111.3515 c -0.0641,-0.0873 -0.70168,-1.19342 -1.41675,-2.45811 l -1.30014,-2.29944 v -5.30127 -5.301277 h -1.994312 -1.994315 l -0.875249,-1.55405 -0.875247,-1.554049 3.531747,-0.02971 c 1.942466,-0.01634 5.159306,-0.01634 7.148546,0 l 3.61681,0.02971 -0.88608,1.554049 -0.88608,1.55405 h -1.94968 -1.94969 l -0.0265,7.759387 c -0.0198,5.79748 -0.056,7.71926 -0.14309,7.60071 z m 47.96278,-3.74548 -2.09796,-3.86937 -0.0279,2.28706 -0.0279,2.28707 h -1.44037 -1.44038 l 0.003,-7.71374 c 0.003,-6.57932 0.0242,-7.683509 0.14533,-7.508196 0.0781,0.113047 1.68788,3.049154 3.57724,6.524683 1.88936,3.475533 3.45838,6.318373 3.48671,6.317433 0.0283,-9.1e-4 1.62798,-2.90333 3.55476,-6.449748 1.92678,-3.546416 3.53802,-6.472038 3.58052,-6.501383 0.0425,-0.02934 0.0773,3.408113 0.0773,7.638801 v 7.69215 h -1.44038 -1.44038 l -0.0279,-2.2863 -0.0279,-2.2863 -2.10587,3.86861 c -1.15826,2.12773 -2.13838,3.8686 -2.17808,3.8686 -0.0397,0 -1.01626,-1.74122 -2.17014,-3.86937 z m 39.47726,1.38961 -1.39099,-2.43669 -0.0287,-5.28377 -0.0287,-5.283767 h -1.94493 -1.94492 l -0.87624,-1.55405 -0.87624,-1.554049 3.60443,-0.02971 c 1.98243,-0.01634 5.19871,-0.01634 7.1473,0 l 3.54287,0.02971 -0.86693,1.525794 -0.86693,1.525794 -1.98801,0.05651 -1.98799,0.05651 -0.0515,7.692208 -0.0515,7.69221 z M 55.011022,108.20388 c 0.01915,-0.0603 1.982209,-3.54014 4.362352,-7.73302 3.226813,-5.684374 4.35688,-7.590154 4.442915,-7.492666 0.0853,0.09666 8.167736,14.321946 8.631068,15.190896 0.05899,0.11064 -0.290766,0.14128 -1.612577,0.14128 h -1.687909 l -2.254938,-3.98402 c -1.240216,-2.19121 -2.456892,-4.332849 -2.703725,-4.759197 l -0.448786,-0.775178 -1.792929,3.148635 -1.792929,3.14864 1.644876,0.031 c 0.904681,0.0171 1.642068,0.0679 1.638637,0.11302 -0.0034,0.0451 -0.388176,0.74315 -0.854991,1.55125 l -0.848755,1.46929 -3.378563,0.0298 c -2.149464,0.019 -3.365897,-0.0101 -3.343746,-0.0798 z m 24.609021,-0.0714 c -1.494881,-0.4474 -2.641618,-1.72398 -3.034218,-3.37778 -0.134162,-0.56515 -0.159913,-1.57978 -0.159913,-6.300964 v -5.627343 h 1.442511 1.442511 v 5.54368 c 0,5.995597 -0.01335,5.843487 0.565077,6.436627 l 0.275546,0.28256 3.37098,0.0326 3.370979,0.0326 0.355927,-0.26085 c 0.729933,-0.53496 0.716217,-0.40941 0.716396,-6.557315 l 1.6e-4,-5.509812 h 1.44251 1.442511 v 5.532504 c 0,3.668733 -0.03906,5.734273 -0.115943,6.131433 -0.288316,1.48936 -1.149616,2.67241 -2.436239,3.34633 l -0.796504,0.41721 -3.657795,0.0241 c -2.983098,0.0197 -3.762326,-0.007 -4.224496,-0.1455 z m 37.995127,0.0586 c -0.67414,-0.18001 -1.61998,-0.7772 -2.09841,-1.32491 -0.57509,-0.65836 -1.0415,-1.67851 -1.17415,-2.56811 -0.13031,-0.87394 -0.13167,-6.576605 -0.002,-7.446669 0.21161,-1.417416 0.98454,-2.673398 2.0833,-3.385289 0.94466,-0.612044 1.36382,-0.660184 5.39503,-0.619601 l 3.61198,0.03636 0.77641,0.421097 c 0.94929,0.514869 1.62224,1.266992 2.07816,2.322695 l 0.32817,0.759883 v 4.125294 c 0,4.05436 -0.004,4.13648 -0.23931,4.77541 -0.45318,1.23107 -1.34956,2.19688 -2.53298,2.72919 -0.49496,0.22263 -0.73332,0.23727 -4.18267,0.2569 -2.01179,0.0114 -3.83147,-0.0256 -4.04376,-0.0823 z m 7.58224,-3.3839 c 0.58401,-0.56246 0.59457,-0.64556 0.56158,-4.41506 -0.0417,-4.762136 0.31263,-4.401341 -4.3217,-4.400734 -4.5905,5.65e-4 -4.26045,-0.353587 -4.26045,4.571984 0,4.94039 -0.34085,4.58134 4.34971,4.58193 l 3.31934,4.6e-4 0.35152,-0.33855 z m -4.36277,-3.24751 c -0.25358,-0.10588 -0.30588,-0.27791 -0.30754,-1.01151 -0.002,-0.90918 0.12579,-1.053522 0.93311,-1.053522 0.81875,0 1.02301,0.214378 1.02301,1.073712 0,0.84076 -0.21147,1.07701 -0.95309,1.06478 -0.29751,-0.005 -0.61049,-0.038 -0.69549,-0.0735 z m 46.10287,6.5574 c 0.0632,-0.1805 8.46173,-15.016118 8.61051,-15.209971 0.0596,-0.07759 8.5551,14.762821 8.71848,15.229851 0.0559,0.15971 -0.11894,0.17574 -1.61369,0.148 l -1.67636,-0.0311 -2.64754,-4.67283 c -1.45614,-2.57006 -2.67647,-4.680743 -2.71187,-4.690408 -0.0595,-0.01626 -3.57327,6.076458 -3.57327,6.195958 0,0.0295 0.73973,0.0675 1.64384,0.0846 l 1.64386,0.0311 -0.88175,1.55405 -0.88175,1.55405 h -3.34904 c -3.11739,0 -3.34436,-0.0134 -3.28142,-0.19327 z"
       id="path836" />
  </g>
</svg>
